<svg aria-hidden="true" style="position: absolute; width: 0; height: 0; overflow: hidden;" version="1.1" xmlns="http://www.w3.org/2000/svg" xmlns:xlink="http://www.w3.org/1999/xlink">
<defs>
<symbol id="icon-globe" viewBox="0 0 32 32">
<path d="M27.809 21.731c-0.275-0.22-0.676-0.176-0.896 0.099-0.31 0.385-0.616 0.728-0.938 1.055l0.002-0.002c-0.247 0.251-0.243 0.655 0.008 0.901 0.115 0.113 0.272 0.183 0.446 0.183 0 0 0.001 0 0.001 0h-0c0 0 0.001 0 0.001 0 0.178 0 0.338-0.073 0.454-0.19l0-0c0.35-0.356 0.684-0.73 1-1.121l0.023-0.029c0.22-0.275 0.176-0.676-0.099-0.896zM25.305 24.381c-0.213-0.281-0.613-0.336-0.893-0.123-2.411 1.827-5.332 2.886-8.448 3.063-0.351 0.020-0.62 0.321-0.6 0.672 0.019 0.339 0.3 0.602 0.636 0.602 0.012 0 0.024-0 0.037-0.001 3.37-0.191 6.532-1.338 9.146-3.319 0.281-0.213 0.336-0.613 0.123-0.893z"></path>
<path d="M31.547 12.497l-0-0c-0.364-1.383-0.942-2.708-1.718-3.939-1.104-1.749-2.558-3.248-4.322-4.454-2.767-1.892-6.055-2.892-9.507-2.892 0 0 0 0-0 0-1.018 0-2.015 0.087-2.985 0.255l0.104-0.015c-2.683 0.451-5.215 1.543-7.323 3.158-3.099 2.374-5.104 5.702-5.646 9.37-0.095 0.607-0.149 1.307-0.149 2.021v0c0 2.633 0.758 5.218 2.192 7.476 1.387 2.183 3.37 4.014 5.734 5.294 0 0 0 0 0.001 0h0c1.342 0.726 2.786 1.265 4.295 1.603 1.233 0.276 2.505 0.416 3.779 0.416 3.094 0 6.097-0.818 8.683-2.365 2.526-1.511 4.535-3.639 5.81-6.152 1-1.971 1.507-4.081 1.507-6.272 0-1.181-0.152-2.36-0.453-3.503zM25.759 5.881c0.799 0.648 1.515 1.37 2.141 2.159l-1.26-0.289c-0.404-0.093-0.819 0.005-1.139 0.269s-0.495 0.653-0.481 1.067c0 0.001 0 0.001 0 0.002 0 0.017-0.009 0.032-0.022 0.041l-0 0-0.926 0.605c-0.008 0.005-0.017 0.008-0.027 0.008-0.009 0-0.017-0.002-0.025-0.007l0 0-1.304-0.743c-0.092-0.054-0.153-0.152-0.153-0.265 0-0.024 0.003-0.048 0.008-0.070l-0 0.002 0.293-1.252c0.032-0.133 0.148-0.23 0.287-0.234h0l1.105-0.031c0.741-0.021 1.358-0.562 1.502-1.263zM7.92 25.882l-0.186 1.3c-4.006-2.503-6.458-6.711-6.458-11.183 0-0.396 0.019-0.795 0.057-1.193l0.853 0.138c0.215 0.035 0.434 0.052 0.652 0.052h0.432c0.599 0 1.194 0.197 1.675 0.553l0.655 0.485c0.055 0.041 0.092 0.103 0.1 0.173l0 0.001 0.089 0.821c0.001 0.008 0.001 0.017 0.001 0.027 0 0.125-0.091 0.228-0.21 0.247l-0.001 0c-0.744 0.119-1.297 0.777-1.284 1.531l0.047 2.89c0.005 0.341 0.122 0.654 0.315 0.904l-0.003-0.003 1.039 1.361c0.484 0.631 1.135 1.111 1.888 1.376l0.029 0.009c0.185 0.065 0.315 0.239 0.315 0.442 0 0.023-0.002 0.046-0.005 0.068l0-0.003zM12.026 29.015c-1.078-0.277-2.118-0.666-3.101-1.162l0.257-1.79c0.118-0.826-0.368-1.622-1.157-1.894-0.538-0.188-0.986-0.519-1.314-0.946l-0.005-0.007-1.039-1.361c-0.031-0.041-0.051-0.092-0.051-0.148v-0l-0.047-2.89c0-0.001-0-0.002-0-0.003 0-0.125 0.091-0.228 0.21-0.248l0.002-0c0.803-0.128 1.363-0.862 1.276-1.671l-0.089-0.821c-0.049-0.437-0.275-0.812-0.604-1.059l-0.004-0.003-0.655-0.485c-0.699-0.518-1.564-0.804-2.434-0.804h-0.432c-0.15 0-0.301-0.012-0.449-0.036l-0.871-0.141c0.618-3.093 2.395-5.889 5.053-7.925 1.873-1.435 4.112-2.423 6.491-2.865 0.356 0.297 0.634 0.675 0.808 1.107l0.007 0.019 0.036 0.091c0.085 0.207 0.148 0.448 0.178 0.7l0.001 0.013 0.032 0.278c0.012 0.097 0.018 0.208 0.018 0.322 0 0.409-0.087 0.798-0.244 1.149l0.007-0.018-0.347 0.79c-0.233 0.523-0.603 0.949-1.065 1.243l-0.011 0.007-0.432 0.272c-0.405 0.258-0.669 0.705-0.669 1.213 0 0.025 0.001 0.049 0.002 0.074l-0-0.003 0.058 1.167c0 0.003 0 0.006 0 0.009 0 0.044-0.019 0.084-0.049 0.112l-0 0c-0.028 0.027-0.066 0.044-0.108 0.044-0.006 0-0.011-0-0.017-0.001l0.001 0c-0.054-0.005-0.099-0.037-0.124-0.081l-0-0.001-0.53-0.985c-0.186-0.339-0.495-0.591-0.866-0.698l-0.010-0.002-1.875-0.523c-0.175-0.051-0.377-0.080-0.585-0.080-0.327 0-0.637 0.072-0.915 0.201l0.013-0.006-0.446 0.203c-0.939 0.427-1.453 1.466-1.221 2.472 0.097 0.414 0.302 0.77 0.582 1.050l1.218 1.218c0.067 0.067 0.131 0.138 0.192 0.212l0.004 0.005 0.835 1.030c0.369 0.455 0.915 0.715 1.501 0.715h0.006l2.277-0.007c0.233 0 0.45 0.125 0.568 0.326 0.274 0.462 0.722 0.796 1.251 0.913l0.013 0.002 0.852 0.183c0.191 0.042 0.348 0.162 0.438 0.325l0.002 0.003 0.412 0.755c0.167 0.302 0.414 0.543 0.713 0.697l0.009 0.004 1.935 0.983c0.139 0.072 0.232 0.215 0.232 0.379 0 0.018-0.001 0.036-0.003 0.054l0-0.002c-0.014 0.106-0.065 0.199-0.14 0.265l-0 0-0.735 0.65c-0.204 0.181-0.363 0.408-0.461 0.664l-0.004 0.012-0.16 0.427c-0.050 0.131-0.15 0.234-0.276 0.287l-0.003 0.001-0.783 0.325c-0.65 0.273-1.098 0.904-1.098 1.64 0 0.001 0 0.002 0 0.004v-0c-0 0.086-0.021 0.166-0.059 0.237l0.001-0.003-2.001 3.817zM16 29.514c-0 0-0.001 0-0.002 0-0.945 0-1.872-0.081-2.773-0.238l0.096 0.014 1.835-3.5c0.128-0.24 0.203-0.524 0.203-0.826v-0c0-0 0-0.001 0-0.001 0-0.209 0.127-0.387 0.308-0.464l0.003-0.001 0.783-0.325c0.455-0.193 0.806-0.556 0.98-1.006l0.004-0.012 0.16-0.427c0.026-0.067 0.065-0.124 0.116-0.169l0-0 0.735-0.65c0.301-0.267 0.506-0.637 0.559-1.054l0.001-0.008c0.089-0.709-0.28-1.402-0.916-1.726l-1.935-0.983c-0.077-0.040-0.139-0.1-0.179-0.173l-0.001-0.002-0.412-0.755c-0.269-0.488-0.73-0.841-1.279-0.962l-0.013-0.002-0.852-0.183c-0.185-0.041-0.337-0.154-0.428-0.308l-0.002-0.003c-0.345-0.592-0.984-0.959-1.669-0.959h-0.006l-2.277 0.007c-0 0-0.001 0-0.001 0-0.205 0-0.388-0.094-0.508-0.242l-0.001-0.001-0.835-1.030c-0.094-0.115-0.187-0.218-0.285-0.316l-1.218-1.218c-0.116-0.116-0.201-0.264-0.24-0.429l-0.001-0.006c-0.096-0.417 0.117-0.848 0.506-1.024l0.446-0.203c0.11-0.051 0.238-0.081 0.374-0.081 0.086 0 0.17 0.012 0.249 0.035l-0.006-0.002 1.875 0.523c0.042 0.012 0.076 0.040 0.096 0.076l0 0.001 0.53 0.985c0.225 0.413 0.637 0.7 1.12 0.746l0.006 0c0.041 0.004 0.088 0.007 0.136 0.007 0.384 0 0.733-0.151 0.99-0.398l-0.001 0.001c0.273-0.261 0.443-0.628 0.443-1.035 0-0.025-0.001-0.050-0.002-0.075l0 0.004-0.058-1.167c-0-0.002-0-0.005-0-0.008 0-0.056 0.029-0.105 0.073-0.133l0.001-0 0.432-0.272c0.689-0.437 1.227-1.056 1.555-1.79l0.010-0.026 0.347-0.79c0.218-0.484 0.345-1.049 0.345-1.644 0-0.165-0.010-0.327-0.029-0.487l0.002 0.019-0.032-0.278c-0.045-0.384-0.137-0.734-0.27-1.063l0.010 0.027-0.036-0.091c-0.132-0.33-0.29-0.615-0.478-0.877l0.008 0.012h0.001c0.468-0.041 0.938-0.061 1.408-0.061 3.080 0 6.016 0.859 8.512 2.486l0.005 0.591c0.001 0.164-0.131 0.301-0.295 0.306l-1.105 0.031c-0.716 0.020-1.33 0.521-1.493 1.218l-0.293 1.252c-0.158 0.676 0.152 1.388 0.756 1.732l1.304 0.743c0.188 0.11 0.414 0.174 0.656 0.175h0c0.252 0 0.503-0.072 0.724-0.216l0.926-0.605c0.386-0.252 0.615-0.694 0.599-1.155-0-0.001-0-0.002-0-0.003 0-0.015 0.007-0.028 0.018-0.036l0-0c0.019-0.016 0.036-0.011 0.043-0.010l1.43 0.328c0.035 0.008 0.072 0.015 0.108 0.020l1.011 0.145c0.439 0.732 0.803 1.498 1.087 2.289l-0.987-0.239c-0.029-0.008-0.069-0.016-0.11-0.023l-0.009-0.001-1.078-0.174c-0.173-0.029-0.372-0.046-0.576-0.046-1.024 0-1.949 0.425-2.607 1.109l-0.001 0.001-0.162 0.169c-0.466 0.483-0.798 1.097-0.937 1.782l-0.004 0.023-0.411 2.078c-0.044 0.212-0.070 0.455-0.070 0.704 0 0.52 0.11 1.015 0.309 1.461l-0.009-0.023c0.513 1.183 1.628 2.008 2.908 2.154l0.2 0.023c0.122 0.015 0.264 0.023 0.408 0.023 0.438 0 0.858-0.078 1.247-0.22l-0.025 0.008 0.68-0.244c0.030-0.011 0.066-0.018 0.102-0.018 0.095 0 0.18 0.044 0.236 0.112l0 0.001 0.089 0.11c0.040 0.050 0.065 0.113 0.068 0.182v0l0.032 1.108c-2.441 4.668-7.636 7.676-13.282 7.676zM30.159 19.727l-0.074-0.092c-0.292-0.358-0.733-0.585-1.228-0.585-0 0-0 0-0 0h0c-0.178 0-0.357 0.030-0.531 0.092l-0.68 0.244c-0.236 0.087-0.508 0.137-0.791 0.137-0.093 0-0.185-0.005-0.275-0.016l0.011 0.001-0.2-0.023c-0.829-0.095-1.551-0.629-1.883-1.395-0.123-0.274-0.194-0.595-0.194-0.932 0-0.161 0.016-0.319 0.048-0.471l-0.003 0.015 0.411-2.078c0.093-0.458 0.308-0.856 0.61-1.17l-0.001 0.001 0.162-0.169c0.427-0.443 1.026-0.719 1.689-0.719 0.132 0 0.261 0.011 0.387 0.032l-0.014-0.002 1.078 0.174c0.008 0.001 0.015 0.003 0.023 0.005l1.702 0.411c0.204 0.845 0.32 1.815 0.321 2.812v0c0 1.277-0.19 2.524-0.566 3.727z"></path>
</symbol>
<symbol id="icon-headphones" viewBox="0 0 32 32">
<path d="M17.636 31.825h-3.279c-0.635 0-1.152-0.517-1.152-1.152v-0.863c0-0.635 0.517-1.152 1.152-1.152h3.279c0.635 0 1.152 0.517 1.152 1.152v0.123h4.373c2.505 0 4.543-2.038 4.543-4.543v-1.971c-0.908-0.148-1.604-0.938-1.604-1.888v-6.383c0-0.933 0.672-1.712 1.557-1.88v-0.812c0-6.431-5.231-11.662-11.662-11.662s-11.662 5.231-11.662 11.662v0.811c0.889 0.164 1.564 0.945 1.564 1.881v6.383c0 1.055-0.858 1.913-1.913 1.913-1.031 0-1.875-0.821-1.911-1.843-1.267-0.591-2.075-1.849-2.075-3.261s0.808-2.67 2.075-3.261c0.033-0.932 0.737-1.696 1.642-1.824v-0.798c0-6.771 5.509-12.28 12.28-12.28s12.28 5.509 12.28 12.28v0.797c0.909 0.125 1.615 0.891 1.649 1.825 1.267 0.591 2.075 1.849 2.075 3.261s-0.808 2.67-2.075 3.261c-0.033 0.918-0.716 1.674-1.602 1.818v1.971c0 2.846-2.315 5.161-5.161 5.161h-4.374v0.123c0 0.636-0.517 1.153-1.152 1.153zM14.357 29.276c-0.295 0-0.534 0.239-0.534 0.534v0.863c0 0.295 0.239 0.534 0.534 0.534h3.279c0.295-0 0.534-0.239 0.534-0.534v-0.863c-0-0.295-0.239-0.534-0.534-0.534h-3.279zM28.014 13.852c-0.714 0-1.295 0.581-1.295 1.295v6.383c0 0.714 0.581 1.295 1.295 1.295s1.295-0.581 1.295-1.295v-6.383c0-0.714-0.581-1.295-1.295-1.295zM3.986 13.852c-0.714 0-1.295 0.581-1.295 1.295v6.383c0 0.714 0.581 1.295 1.295 1.295s1.295-0.581 1.295-1.295v-6.383c0-0.714-0.581-1.295-1.295-1.295zM2.074 15.776c-0.897 0.532-1.455 1.494-1.455 2.562s0.558 2.031 1.455 2.562v-5.124zM29.927 15.776v5.124c0.897-0.532 1.455-1.494 1.455-2.562s-0.558-2.031-1.455-2.562z"></path>
</symbol>
<symbol id="icon-money" viewBox="0 0 32 32">
<path d="M28.382 5.746h-21.188c-1.995 0-3.618 1.484-3.618 3.309v0.29c-1.976 0.021-3.577 1.495-3.577 3.307v10.294c0 1.825 1.623 3.309 3.618 3.309h21.188c1.995 0 3.618-1.484 3.618-3.309v-0.29c1.976-0.020 3.577-1.495 3.577-3.307v-10.294c0-1.825-1.623-3.309-3.618-3.309zM26.103 22.945c0 0.536-0.594 0.988-1.297 0.988h-21.188c-0.703 0-1.297-0.452-1.297-0.988v-10.294c0-0.536 0.594-0.988 1.297-0.988h21.188c0.703 0 1.297 0.453 1.297 0.988v10.294zM28.423 20.334v-7.682c0-1.825-1.623-3.309-3.618-3.309h-18.908v-0.288c0-0.536 0.594-0.988 1.297-0.988h21.188c0.703 0 1.297 0.453 1.297 0.988v10.294h0c-0 0.525-0.572 0.968-1.257 0.985z"></path>
<path d="M14.253 16.929c-0.976-0.116-1.472-0.256-1.472-0.695 0-0.681 0.985-0.754 1.409-0.754 0.624 0 1.314 0.302 1.538 0.672l0.089 0.148 1.425-0.659-0.087-0.177c-0.502-1.024-1.391-1.334-2.077-1.46v-0.906h-1.667v0.902c-1.468 0.229-2.338 1.055-2.338 2.234 0 1.94 1.82 2.143 3.023 2.278 1.094 0.129 1.603 0.392 1.603 0.826 0 0.84-1.186 0.905-1.55 0.905-0.816 0-1.602-0.404-1.828-0.94l-0.075-0.178-1.546 0.655 0.076 0.178c0.435 1.019 1.367 1.661 2.635 1.821v0.977h1.667v-1.026c1.217-0.15 2.389-0.928 2.389-2.392 0-2.012-1.933-2.251-3.214-2.409z"></path>
</symbol>
<symbol id="icon-check" viewBox="0 0 32 32">
<path fill="#e1f5fe" style="fill: var(--color1, #e1f5fe)" d="M30.333 16c0 7.916-6.417 14.333-14.333 14.333s-14.333-6.417-14.333-14.333c0-7.916 6.417-14.333 14.333-14.333s14.333 6.417 14.333 14.333z"></path>
<path fill="#0277bd" style="fill: var(--color2, #0277bd)" d="M16 30.667c-8.087 0-14.667-6.579-14.667-14.667s6.579-14.667 14.667-14.667c4.317 0.004 8.198 1.868 10.883 4.835l0.011 0.013c0.053 0.059 0.086 0.137 0.086 0.223 0 0.184-0.149 0.333-0.333 0.333-0.098 0-0.186-0.042-0.247-0.11l-0-0c-2.575-2.844-6.279-4.624-10.399-4.627h-0.001c-7.719 0-14 6.28-14 14s6.281 14 14 14 14-6.28 14-14c0-1.533-0.246-3.040-0.732-4.48-0.011-0.032-0.017-0.068-0.017-0.106 0-0.184 0.149-0.333 0.333-0.333 0.146 0 0.27 0.094 0.315 0.224l0.001 0.002c0.486 1.395 0.767 3.004 0.767 4.678 0 0.005 0 0.011 0 0.016v-0.001c0 8.087-6.579 14.667-14.667 14.667z"></path>
<path fill="#fff" style="fill: var(--color3, #fff)" d="M16 30c-7.719 0-14-6.28-14-14s6.281-14 14-14c4.058 0.006 7.711 1.732 10.271 4.487l0.008 0.009c0.053 0.059 0.085 0.137 0.085 0.223 0 0.184-0.149 0.333-0.333 0.333-0.095 0-0.181-0.040-0.241-0.103l-0-0c-2.446-2.632-5.926-4.276-9.789-4.281h-0.001c-7.352 0-13.333 5.981-13.333 13.333s5.981 13.333 13.333 13.333 13.333-5.981 13.333-13.333c0-1.353-0.202-2.687-0.599-3.965-0.010-0.030-0.015-0.064-0.015-0.099 0-0.184 0.149-0.333 0.333-0.333 0.149 0 0.275 0.097 0.318 0.232l0.001 0.002c0.418 1.342 0.629 2.743 0.629 4.163 0 7.72-6.281 14-14 14z"></path>
<path fill="#64ffda" style="fill: var(--color4, #64ffda)" d="M14.389 22.556c0.595 0.592 1.625 0.592 2.221 0l12.925-12.873c0.288-0.286 0.465-0.682 0.465-1.12s-0.178-0.834-0.465-1.12l-0-0c-0.595-0.592-1.625-0.592-2.22 0l-11.31 11.263c-0.266 0.265-0.744 0.265-1.011 0l-4.309-4.291c-0.297-0.296-0.691-0.459-1.11-0.459s-0.813 0.163-1.11 0.459c-0.288 0.286-0.466 0.682-0.466 1.12s0.178 0.834 0.465 1.12l0 0 5.924 5.9z"></path>
<path fill="#0277bd" style="fill: var(--color2, #0277bd)" d="M15.499 23.337c-0.004 0-0.009 0-0.013 0-0.519 0-0.989-0.208-1.332-0.545l0 0-5.924-5.9c-0.348-0.345-0.564-0.823-0.564-1.351 0-0.002 0-0.004 0-0.006v0c0-0.513 0.201-0.994 0.564-1.355 0.718-0.716 1.969-0.717 2.69 0l4.309 4.291c0.137 0.136 0.404 0.137 0.54 0l11.311-11.264c0.729-0.726 1.961-0.726 2.69 0 0.348 0.345 0.564 0.823 0.564 1.351 0 0.002 0 0.004 0 0.005v-0c0 0.513-0.201 0.994-0.564 1.355l-12.924 12.874c-0.343 0.337-0.814 0.545-1.333 0.545-0.005 0-0.009-0-0.014-0h0.001zM9.575 14.291c-0.001 0-0.002 0-0.002 0-0.341 0-0.649 0.138-0.872 0.361v0c-0.237 0.236-0.368 0.549-0.368 0.883s0.13 0.648 0.367 0.883l5.924 5.901c0.466 0.463 1.285 0.464 1.751 0l12.925-12.873c0.236-0.235 0.367-0.549 0.367-0.883s-0.13-0.648-0.367-0.883c-0.466-0.464-1.284-0.465-1.75 0l-11.31 11.264c-0.393 0.393-1.087 0.393-1.481 0l-4.308-4.291c-0.223-0.224-0.531-0.362-0.871-0.362-0.001 0-0.003 0-0.004 0h0z"></path>
<path fill="#fff" style="fill: var(--color3, #fff)" d="M8.667 15.869c-0.184 0-0.333-0.149-0.333-0.333v0c0-0.333 0.131-0.647 0.368-0.883 0.234-0.233 0.544-0.361 0.875-0.361 0.184 0 0.333 0.149 0.333 0.333s-0.149 0.333-0.333 0.333v0c-0 0-0.001 0-0.001 0-0.157 0-0.3 0.064-0.403 0.167v0c-0.106 0.105-0.171 0.251-0.171 0.411v0c-0 0.184-0.15 0.333-0.334 0.333 0 0 0 0 0 0v0zM17.441 18.552c-0.183-0.002-0.331-0.151-0.331-0.335 0-0.092 0.037-0.175 0.097-0.235l-0 0 9.38-9.342c0.061-0.062 0.145-0.101 0.239-0.101 0.184 0 0.333 0.149 0.333 0.333 0 0.094-0.039 0.18-0.102 0.24l-0 0-9.38 9.342c-0.060 0.060-0.143 0.097-0.235 0.097v0z"></path>
</symbol>
<symbol id="icon-excavator" viewBox="0 0 32 32">
<path d="M2.036 28.215c0 0.824 0.671 1.495 1.495 1.495s1.495-0.671 1.495-1.495c0-0.532-0.286-1.028-0.747-1.294-0.215-0.126-0.473-0.201-0.748-0.201-0 0-0 0-0 0h0c-0.824 0-1.495 0.671-1.495 1.495zM4.072 28.215c0 0.298-0.243 0.541-0.541 0.541s-0.541-0.243-0.541-0.541 0.243-0.541 0.541-0.541c0.095 0 0.189 0.025 0.27 0.072 0.163 0.096 0.27 0.269 0.271 0.468v0zM7.602 29.71c0.824 0 1.495-0.671 1.495-1.495 0-0.532-0.286-1.028-0.747-1.294-0.215-0.126-0.473-0.201-0.748-0.201-0 0-0 0-0 0v0c-0.824 0-1.495 0.671-1.495 1.495s0.671 1.495 1.495 1.495zM7.602 27.674c0.095 0 0.189 0.025 0.27 0.072 0.163 0.096 0.27 0.269 0.27 0.468v0c0 0.298-0.243 0.541-0.541 0.541s-0.541-0.243-0.541-0.541 0.243-0.541 0.541-0.541zM11.674 29.71c0.824 0 1.495-0.671 1.495-1.495 0-0.532-0.286-1.028-0.747-1.294-0.215-0.126-0.473-0.201-0.748-0.201-0 0-0 0-0 0v0c-0.824 0-1.495 0.671-1.495 1.495s0.671 1.495 1.495 1.495zM11.674 27.674c0.095 0 0.189 0.025 0.27 0.072 0.163 0.096 0.27 0.269 0.271 0.468v0c0 0.298-0.243 0.541-0.541 0.541s-0.541-0.243-0.541-0.541 0.243-0.541 0.541-0.541zM15.746 29.71c0.824 0 1.495-0.671 1.495-1.495 0-0.532-0.286-1.028-0.747-1.294-0.215-0.126-0.473-0.201-0.748-0.201-0 0-0 0-0 0v0c-0.824 0-1.495 0.671-1.495 1.495s0.671 1.495 1.495 1.495zM15.746 27.674c0.095 0 0.189 0.025 0.27 0.072 0.163 0.096 0.27 0.269 0.27 0.468v0c0 0.298-0.243 0.541-0.541 0.541s-0.541-0.243-0.541-0.541 0.243-0.541 0.541-0.541zM4.040 20.040h0.509c0.263 0 0.477-0.214 0.477-0.477s-0.214-0.477-0.477-0.477v0h-0.509c-0.264 0-0.477 0.214-0.477 0.477s0.214 0.477 0.477 0.477v0zM4.040 21.567h0.509c0.263 0 0.477-0.214 0.477-0.477s-0.214-0.477-0.477-0.477v0h-0.509c-0.264 0-0.477 0.214-0.477 0.477s0.214 0.477 0.477 0.477v0z"></path>
<path d="M31.798 16.777l-8.113-15.331c-0.312-0.701-1.015-1.192-1.831-1.192-0.683 0-1.288 0.344-1.649 0.868l-0.003 0.003-7.764 10.348c-0.098-0.014-0.211-0.021-0.326-0.021h-3.491c-1.386 0-2.513 1.127-2.513 2.513v3.086h-3.086c-0.824 0-1.495 0.671-1.495 1.495v3.563c0 0.824 0.671 1.495 1.495 1.495h4.103v1.081h-3.594c-1.947 0-3.531 1.584-3.531 3.531s1.584 3.531 3.531 3.531h12.215c1.947 0 3.531-1.584 3.531-3.531s-1.584-3.531-3.531-3.531h-3.594v-1.081h4.103c0.264 0 0.477-0.214 0.477-0.477v0-1.559l0.541-0c0.006 0 0.013-0.001 0.019-0.001 0.010-0 0.020-0 0.030-0.002 0.005-0 0.010-0.002 0.015-0.002 0.011-0.001 0.022-0.003 0.032-0.005 0.009-0.002 0.017-0.004 0.026-0.007 0.007-0.002 0.014-0.003 0.020-0.005 0.005-0.002 0.010-0.004 0.015-0.006 0.010-0.003 0.019-0.006 0.029-0.010 0.001-0 0.002-0.001 0.003-0.002 0.027-0.012 0.053-0.026 0.078-0.042 0.006-0.004 0.012-0.009 0.018-0.013s0.013-0.009 0.019-0.014c0.006-0.005 0.012-0.011 0.019-0.017 0.005-0.005 0.010-0.009 0.015-0.014s0.008-0.009 0.013-0.014c0.006-0.007 0.012-0.013 0.018-0.020 0.002-0.003 0.004-0.005 0.006-0.008 0.007-0.009 0.015-0.019 0.021-0.029 0.003-0.005 0.006-0.009 0.009-0.014 0.005-0.008 0.011-0.017 0.015-0.025 0.027-0.049 0.045-0.104 0.053-0.162 0.003-0.022 0.005-0.043 0.005-0.066v-1.821c0-0.001 0-0.003 0-0.004 0-0.939-0.285-1.811-0.774-2.535l0.010 0.016-0.756-1.134 5.242-8.8 7.742 11.468c0.183 0.31 0.466 0.545 0.804 0.662l0.011 0.003v0.788l-0.139-0.346c-0.073-0.177-0.243-0.299-0.443-0.299-0.064 0-0.125 0.013-0.181 0.035l0.003-0.001-6.521 2.619-1.123-0.926c-0.082-0.068-0.188-0.109-0.304-0.109-0.264 0-0.477 0.214-0.477 0.477 0 0.148 0.067 0.28 0.173 0.368l0.001 0.001 3.522 2.903c0.605 0.502 1.39 0.807 2.246 0.807 0.474 0 0.927-0.094 1.34-0.263l-0.023 0.009 1.624-0.652c0.7-0.281 1.154-0.916 1.241-1.616 0.010-0.038 0.016-0.079 0.016-0.12v-3.673c0.591-0.2 1.018-0.759 1.018-1.417 0-0.273-0.074-0.529-0.202-0.75zM6.107 22.648h-3.086c-0.298 0-0.541-0.243-0.541-0.541v-3.563c0-0.298 0.243-0.541 0.541-0.541h3.086v4.644zM29.369 23.467l-1.624 0.652c-0.284 0.118-0.615 0.186-0.961 0.186-0.625 0-1.197-0.222-1.643-0.592l0.004 0.003-1.56-1.286 5.595-2.248 0.771 1.919c0.216 0.537-0.046 1.15-0.583 1.365zM21.853 1.209c0.393 0 0.735 0.217 0.915 0.537 0.007 0.019 0.015 0.038 0.025 0.056l0.031 0.058c0.050 0.118 0.079 0.254 0.079 0.398 0 0.2-0.057 0.388-0.155 0.547l0.003-0.004c-0.003 0.005-0.006 0.009-0.009 0.014l-0.020 0.034c-0.189 0.278-0.508 0.46-0.868 0.46-0.579 0-1.050-0.471-1.050-1.050s0.471-1.050 1.050-1.050zM15.746 25.638c1.421 0 2.577 1.156 2.577 2.577s-1.156 2.577-2.577 2.577h-12.215c-1.421 0-2.577-1.156-2.577-2.577s1.156-2.577 2.577-2.577h12.215zM8.080 24.684v-1.081h3.117v1.081h-3.117zM15.777 22.648h-8.716v-5.119l0-0.002-0-0.002v-3.56c0-0.693 0.455-1.282 1.082-1.484v6.854c0 0.583 0.347 1.084 0.845 1.31l0.009 0.004c1.371 0.609 2.827 0.918 4.327 0.918h2.453v1.081zM16.795 19.268v1.344h-3.471c-0.569 0-1.13-0.049-1.682-0.146v-6.502c0-0.264-0.214-0.477-0.477-0.477s-0.477 0.214-0.477 0.477v0 6.283c-0.515-0.147-0.947-0.307-1.364-0.496l0.061 0.025c-0.171-0.077-0.287-0.246-0.287-0.442v0-6.929h3.014c0.522 0 1.007 0.259 1.297 0.694l2.783 4.175c0.378 0.559 0.604 1.248 0.604 1.99 0 0.001 0 0.002 0 0.004v-0zM15.643 14.731l-1.441-2.161c-0.213-0.316-0.486-0.575-0.805-0.765l-0.011-0.006 6.605-8.803c0.294 0.741 1.018 1.266 1.863 1.266 0.009 0 0.017-0.001 0.026-0.001l-6.236 10.469zM29.28 16.671l-7.269-10.767 1.526-2.562c0.013-0.021 0.026-0.041 0.039-0.062l6.754 12.762c-0.433 0.051-0.811 0.288-1.049 0.629zM30.505 18.068c-0.298 0-0.541-0.243-0.541-0.541s0.243-0.541 0.541-0.541 0.541 0.243 0.541 0.541-0.243 0.541-0.541 0.541z"></path>
</symbol>
<symbol id="icon-phone" viewBox="0 0 22 32">
<path fill="none" stroke="#6b6c6e" style="stroke: var(--color5, #6b6c6e)" stroke-linejoin="miter" stroke-linecap="butt" stroke-miterlimit="4" stroke-width="0.9846" d="M0.542 8.96s1.231 3.397 4.332 9.846v0.049c3.151 6.449 5.169 9.354 5.169 9.354 2.068 2.215 5.514 3.2 9.206 1.428 2.018-0.985 1.674-3.298-0.197-7.138-1.674-3.446-3.545-3.545-4.775-2.462-0.246 0.197-1.034 0.935-1.083 1.182 0 0-0.738 1.231-3.545-4.628-2.806-5.809-1.674-5.514-1.674-5.514 0.197 0.049 1.28 0.197 1.575 0.098 1.575-0.345 2.855-2.018 1.034-5.76-1.871-3.84-3.446-5.563-5.465-4.578-3.052 1.428-5.022 5.12-4.578 8.123z"></path>
</symbol>
<symbol id="icon-menu" viewBox="0 0 32 32">
<path d="M4 9.333h24c0.736 0 1.333-0.597 1.333-1.333s-0.597-1.333-1.333-1.333v0h-24c-0.736 0-1.333 0.597-1.333 1.333s0.597 1.333 1.333 1.333v0zM28 14.667h-24c-0.736 0-1.333 0.597-1.333 1.333s0.597 1.333 1.333 1.333v0h24c0.736 0 1.333-0.597 1.333-1.333s-0.597-1.333-1.333-1.333v0zM28 22.667h-24c-0.736 0-1.333 0.597-1.333 1.333s0.597 1.333 1.333 1.333v0h24c0.736 0 1.333-0.597 1.333-1.333s-0.597-1.333-1.333-1.333v0z"></path>
</symbol>
</defs>
</svg>
