<svg aria-hidden="true" style="position: absolute; width: 0; height: 0; overflow: hidden;" version="1.1" xmlns="http://www.w3.org/2000/svg" xmlns:xlink="http://www.w3.org/1999/xlink">
<defs>
<symbol id="icon-call" viewBox="0 0 32 32">
<path d="M9 14v0.013c-1.367 0.14-2.45 1.418-2.45 2.987s1.084 2.847 2.45 2.987v0.013c0 0.414 0.336 0.75 0.75 0.75v0h0.014c0.078 0.68 0.473 1.321 1.118 1.867 1.022 0.865 2.685 1.5 4.628 1.678 0.009 0.001 0.018 0.002 0.027 0.001 0.231 0.278 0.577 0.453 0.963 0.453 0.69 0 1.25-0.56 1.25-1.25s-0.56-1.25-1.25-1.25c-0.374 0-0.71 0.164-0.939 0.425l-0.001 0.001c-1.402-0.148-2.594-0.541-3.332-1.076-0.45-0.326-0.727-0.695-0.727-1.1v-6c0-0 0-0 0-0 0-0.324-0.206-0.6-0.494-0.705l-0.005-0.002c0.047-2.525 2.272-4.689 4.999-4.689s4.952 2.164 4.999 4.689c-0.293 0.106-0.499 0.383-0.499 0.707 0 0 0 0 0 0v0 5.5c0 0.414 0.336 0.75 0.75 0.75v0h1c0.414 0 0.75-0.336 0.75-0.75v0-0.013c1.361-0.14 2.439-1.419 2.439-2.987s-1.079-2.846-2.439-2.987v-0.013c0-3.723-3.102-6.75-6.968-6.75s-7.032 3.027-7.032 6.75zM16.5 22.75c0.414 0 0.75 0.336 0.75 0.75s-0.336 0.75-0.75 0.75c-0 0-0 0-0 0v0c-0.414-0-0.75-0.336-0.75-0.75s0.336-0.75 0.75-0.75c0 0 0 0 0 0v0zM10.268 20.75c0.080 0.543 0.418 1.047 0.937 1.486 0.911 0.771 2.369 1.334 4.074 1.534-0.019-0.081-0.029-0.173-0.029-0.269 0-0.125 0.018-0.246 0.052-0.36l-0.002 0.009c-1.414-0.176-2.61-0.598-3.366-1.145-0.511-0.369-0.826-0.802-0.911-1.255h-0.755zM9.5 20v-5.75h1.25c0.138 0 0.25 0.112 0.25 0.25v0 5.75h-1.25c-0.138 0-0.25-0.112-0.25-0.25v0zM22.5 14.25v5.75c0 0.138-0.112 0.25-0.25 0.25v0h-1c-0.138 0-0.25-0.112-0.25-0.25v0-5.5c0-0.138 0.112-0.25 0.25-0.25v0h1.25zM9 14.516c-1.104 0.141-1.95 1.207-1.95 2.484s0.847 2.343 1.95 2.484v-4.968zM23 14.516v4.968c1.098-0.142 1.939-1.207 1.939-2.484s-0.842-2.342-1.939-2.484zM22.495 13.75c-0.136-3.336-2.966-6-6.463-6s-6.388 2.663-6.527 6h0.996c0.072-2.769 2.505-5.146 5.498-5.146s5.427 2.377 5.498 5.146h0.997z"></path>
</symbol>
<symbol id="icon-money" viewBox="0 0 32 32">
<path d="M28.382 5.746h-21.188c-1.995 0-3.618 1.484-3.618 3.309v0.29c-1.976 0.021-3.577 1.495-3.577 3.307v10.294c0 1.825 1.623 3.309 3.618 3.309h21.188c1.995 0 3.618-1.484 3.618-3.309v-0.29c1.976-0.020 3.577-1.495 3.577-3.307v-10.294c0-1.825-1.623-3.309-3.618-3.309zM26.103 22.945c0 0.536-0.594 0.988-1.297 0.988h-21.188c-0.703 0-1.297-0.452-1.297-0.988v-10.294c0-0.536 0.594-0.988 1.297-0.988h21.188c0.703 0 1.297 0.453 1.297 0.988v10.294zM28.423 20.334v-7.682c0-1.825-1.623-3.309-3.618-3.309h-18.908v-0.288c0-0.536 0.594-0.988 1.297-0.988h21.188c0.703 0 1.297 0.453 1.297 0.988v10.294h0c-0 0.525-0.572 0.968-1.257 0.985z"></path>
<path d="M14.253 16.929c-0.976-0.116-1.472-0.256-1.472-0.695 0-0.681 0.985-0.754 1.409-0.754 0.624 0 1.314 0.302 1.538 0.672l0.089 0.148 1.425-0.659-0.087-0.177c-0.502-1.024-1.391-1.334-2.077-1.46v-0.906h-1.667v0.902c-1.468 0.229-2.338 1.055-2.338 2.234 0 1.94 1.82 2.143 3.023 2.278 1.094 0.129 1.603 0.392 1.603 0.826 0 0.84-1.186 0.905-1.55 0.905-0.816 0-1.602-0.404-1.828-0.94l-0.075-0.178-1.546 0.655 0.076 0.178c0.435 1.019 1.367 1.661 2.635 1.821v0.977h1.667v-1.026c1.217-0.15 2.389-0.928 2.389-2.392 0-2.012-1.933-2.251-3.214-2.409z"></path>
</symbol>
<symbol id="icon-check" viewBox="0 0 32 32">
<path fill="#e1f5fe" style="fill: var(--color1, #e1f5fe)" d="M30.333 16c0 7.916-6.417 14.333-14.333 14.333s-14.333-6.417-14.333-14.333c0-7.916 6.417-14.333 14.333-14.333s14.333 6.417 14.333 14.333z"></path>
<path fill="#0277bd" style="fill: var(--color2, #0277bd)" d="M16 30.667c-8.087 0-14.667-6.579-14.667-14.667s6.579-14.667 14.667-14.667c4.317 0.004 8.198 1.868 10.883 4.835l0.011 0.013c0.053 0.059 0.086 0.137 0.086 0.223 0 0.184-0.149 0.333-0.333 0.333-0.098 0-0.186-0.042-0.247-0.11l-0-0c-2.575-2.844-6.279-4.624-10.399-4.627h-0.001c-7.719 0-14 6.28-14 14s6.281 14 14 14 14-6.28 14-14c0-1.533-0.246-3.040-0.732-4.48-0.011-0.032-0.017-0.068-0.017-0.106 0-0.184 0.149-0.333 0.333-0.333 0.146 0 0.27 0.094 0.315 0.224l0.001 0.002c0.486 1.395 0.767 3.004 0.767 4.678 0 0.005 0 0.011 0 0.016v-0.001c0 8.087-6.579 14.667-14.667 14.667z"></path>
<path fill="#fff" style="fill: var(--color3, #fff)" d="M16 30c-7.719 0-14-6.28-14-14s6.281-14 14-14c4.058 0.006 7.711 1.732 10.271 4.487l0.008 0.009c0.053 0.059 0.085 0.137 0.085 0.223 0 0.184-0.149 0.333-0.333 0.333-0.095 0-0.181-0.040-0.241-0.103l-0-0c-2.446-2.632-5.926-4.276-9.789-4.281h-0.001c-7.352 0-13.333 5.981-13.333 13.333s5.981 13.333 13.333 13.333 13.333-5.981 13.333-13.333c0-1.353-0.202-2.687-0.599-3.965-0.010-0.030-0.015-0.064-0.015-0.099 0-0.184 0.149-0.333 0.333-0.333 0.149 0 0.275 0.097 0.318 0.232l0.001 0.002c0.418 1.342 0.629 2.743 0.629 4.163 0 7.72-6.281 14-14 14z"></path>
<path fill="#64ffda" style="fill: var(--color4, #64ffda)" d="M14.389 22.556c0.595 0.592 1.625 0.592 2.221 0l12.925-12.873c0.288-0.286 0.465-0.682 0.465-1.12s-0.178-0.834-0.465-1.12l-0-0c-0.595-0.592-1.625-0.592-2.22 0l-11.31 11.263c-0.266 0.265-0.744 0.265-1.011 0l-4.309-4.291c-0.297-0.296-0.691-0.459-1.11-0.459s-0.813 0.163-1.11 0.459c-0.288 0.286-0.466 0.682-0.466 1.12s0.178 0.834 0.465 1.12l0 0 5.924 5.9z"></path>
<path fill="#0277bd" style="fill: var(--color2, #0277bd)" d="M15.499 23.337c-0.004 0-0.009 0-0.013 0-0.519 0-0.989-0.208-1.332-0.545l0 0-5.924-5.9c-0.348-0.345-0.564-0.823-0.564-1.351 0-0.002 0-0.004 0-0.006v0c0-0.513 0.201-0.994 0.564-1.355 0.718-0.716 1.969-0.717 2.69 0l4.309 4.291c0.137 0.136 0.404 0.137 0.54 0l11.311-11.264c0.729-0.726 1.961-0.726 2.69 0 0.348 0.345 0.564 0.823 0.564 1.351 0 0.002 0 0.004 0 0.005v-0c0 0.513-0.201 0.994-0.564 1.355l-12.924 12.874c-0.343 0.337-0.814 0.545-1.333 0.545-0.005 0-0.009-0-0.014-0h0.001zM9.575 14.291c-0.001 0-0.002 0-0.002 0-0.341 0-0.649 0.138-0.872 0.361v0c-0.237 0.236-0.368 0.549-0.368 0.883s0.13 0.648 0.367 0.883l5.924 5.901c0.466 0.463 1.285 0.464 1.751 0l12.925-12.873c0.236-0.235 0.367-0.549 0.367-0.883s-0.13-0.648-0.367-0.883c-0.466-0.464-1.284-0.465-1.75 0l-11.31 11.264c-0.393 0.393-1.087 0.393-1.481 0l-4.308-4.291c-0.223-0.224-0.531-0.362-0.871-0.362-0.001 0-0.003 0-0.004 0h0z"></path>
<path fill="#fff" style="fill: var(--color3, #fff)" d="M8.667 15.869c-0.184 0-0.333-0.149-0.333-0.333v0c0-0.333 0.131-0.647 0.368-0.883 0.234-0.233 0.544-0.361 0.875-0.361 0.184 0 0.333 0.149 0.333 0.333s-0.149 0.333-0.333 0.333v0c-0 0-0.001 0-0.001 0-0.157 0-0.3 0.064-0.403 0.167v0c-0.106 0.105-0.171 0.251-0.171 0.411v0c-0 0.184-0.15 0.333-0.334 0.333 0 0 0 0 0 0v0zM17.441 18.552c-0.183-0.002-0.331-0.151-0.331-0.335 0-0.092 0.037-0.175 0.097-0.235l-0 0 9.38-9.342c0.061-0.062 0.145-0.101 0.239-0.101 0.184 0 0.333 0.149 0.333 0.333 0 0.094-0.039 0.18-0.102 0.24l-0 0-9.38 9.342c-0.060 0.060-0.143 0.097-0.235 0.097v0z"></path>
</symbol>
<symbol id="icon-excavator" viewBox="0 0 32 32">
<path d="M2.036 28.215c0 0.824 0.671 1.495 1.495 1.495s1.495-0.671 1.495-1.495c0-0.532-0.286-1.028-0.747-1.294-0.215-0.126-0.473-0.201-0.748-0.201-0 0-0 0-0 0h0c-0.824 0-1.495 0.671-1.495 1.495zM4.072 28.215c0 0.298-0.243 0.541-0.541 0.541s-0.541-0.243-0.541-0.541 0.243-0.541 0.541-0.541c0.095 0 0.189 0.025 0.27 0.072 0.163 0.096 0.27 0.269 0.271 0.468v0zM7.602 29.71c0.824 0 1.495-0.671 1.495-1.495 0-0.532-0.286-1.028-0.747-1.294-0.215-0.126-0.473-0.201-0.748-0.201-0 0-0 0-0 0v0c-0.824 0-1.495 0.671-1.495 1.495s0.671 1.495 1.495 1.495zM7.602 27.674c0.095 0 0.189 0.025 0.27 0.072 0.163 0.096 0.27 0.269 0.27 0.468v0c0 0.298-0.243 0.541-0.541 0.541s-0.541-0.243-0.541-0.541 0.243-0.541 0.541-0.541zM11.674 29.71c0.824 0 1.495-0.671 1.495-1.495 0-0.532-0.286-1.028-0.747-1.294-0.215-0.126-0.473-0.201-0.748-0.201-0 0-0 0-0 0v0c-0.824 0-1.495 0.671-1.495 1.495s0.671 1.495 1.495 1.495zM11.674 27.674c0.095 0 0.189 0.025 0.27 0.072 0.163 0.096 0.27 0.269 0.271 0.468v0c0 0.298-0.243 0.541-0.541 0.541s-0.541-0.243-0.541-0.541 0.243-0.541 0.541-0.541zM15.746 29.71c0.824 0 1.495-0.671 1.495-1.495 0-0.532-0.286-1.028-0.747-1.294-0.215-0.126-0.473-0.201-0.748-0.201-0 0-0 0-0 0v0c-0.824 0-1.495 0.671-1.495 1.495s0.671 1.495 1.495 1.495zM15.746 27.674c0.095 0 0.189 0.025 0.27 0.072 0.163 0.096 0.27 0.269 0.27 0.468v0c0 0.298-0.243 0.541-0.541 0.541s-0.541-0.243-0.541-0.541 0.243-0.541 0.541-0.541zM4.040 20.040h0.509c0.263 0 0.477-0.214 0.477-0.477s-0.214-0.477-0.477-0.477v0h-0.509c-0.264 0-0.477 0.214-0.477 0.477s0.214 0.477 0.477 0.477v0zM4.040 21.567h0.509c0.263 0 0.477-0.214 0.477-0.477s-0.214-0.477-0.477-0.477v0h-0.509c-0.264 0-0.477 0.214-0.477 0.477s0.214 0.477 0.477 0.477v0z"></path>
<path d="M31.798 16.777l-8.113-15.331c-0.312-0.701-1.015-1.192-1.831-1.192-0.683 0-1.288 0.344-1.649 0.868l-0.003 0.003-7.764 10.348c-0.098-0.014-0.211-0.021-0.326-0.021h-3.491c-1.386 0-2.513 1.127-2.513 2.513v3.086h-3.086c-0.824 0-1.495 0.671-1.495 1.495v3.563c0 0.824 0.671 1.495 1.495 1.495h4.103v1.081h-3.594c-1.947 0-3.531 1.584-3.531 3.531s1.584 3.531 3.531 3.531h12.215c1.947 0 3.531-1.584 3.531-3.531s-1.584-3.531-3.531-3.531h-3.594v-1.081h4.103c0.264 0 0.477-0.214 0.477-0.477v0-1.559l0.541-0c0.006 0 0.013-0.001 0.019-0.001 0.010-0 0.020-0 0.030-0.002 0.005-0 0.010-0.002 0.015-0.002 0.011-0.001 0.022-0.003 0.032-0.005 0.009-0.002 0.017-0.004 0.026-0.007 0.007-0.002 0.014-0.003 0.020-0.005 0.005-0.002 0.010-0.004 0.015-0.006 0.010-0.003 0.019-0.006 0.029-0.010 0.001-0 0.002-0.001 0.003-0.002 0.027-0.012 0.053-0.026 0.078-0.042 0.006-0.004 0.012-0.009 0.018-0.013s0.013-0.009 0.019-0.014c0.006-0.005 0.012-0.011 0.019-0.017 0.005-0.005 0.010-0.009 0.015-0.014s0.008-0.009 0.013-0.014c0.006-0.007 0.012-0.013 0.018-0.020 0.002-0.003 0.004-0.005 0.006-0.008 0.007-0.009 0.015-0.019 0.021-0.029 0.003-0.005 0.006-0.009 0.009-0.014 0.005-0.008 0.011-0.017 0.015-0.025 0.027-0.049 0.045-0.104 0.053-0.162 0.003-0.022 0.005-0.043 0.005-0.066v-1.821c0-0.001 0-0.003 0-0.004 0-0.939-0.285-1.811-0.774-2.535l0.010 0.016-0.756-1.134 5.242-8.8 7.742 11.468c0.183 0.31 0.466 0.545 0.804 0.662l0.011 0.003v0.788l-0.139-0.346c-0.073-0.177-0.243-0.299-0.443-0.299-0.064 0-0.125 0.013-0.181 0.035l0.003-0.001-6.521 2.619-1.123-0.926c-0.082-0.068-0.188-0.109-0.304-0.109-0.264 0-0.477 0.214-0.477 0.477 0 0.148 0.067 0.28 0.173 0.368l0.001 0.001 3.522 2.903c0.605 0.502 1.39 0.807 2.246 0.807 0.474 0 0.927-0.094 1.34-0.263l-0.023 0.009 1.624-0.652c0.7-0.281 1.154-0.916 1.241-1.616 0.010-0.038 0.016-0.079 0.016-0.12v-3.673c0.591-0.2 1.018-0.759 1.018-1.417 0-0.273-0.074-0.529-0.202-0.75zM6.107 22.648h-3.086c-0.298 0-0.541-0.243-0.541-0.541v-3.563c0-0.298 0.243-0.541 0.541-0.541h3.086v4.644zM29.369 23.467l-1.624 0.652c-0.284 0.118-0.615 0.186-0.961 0.186-0.625 0-1.197-0.222-1.643-0.592l0.004 0.003-1.56-1.286 5.595-2.248 0.771 1.919c0.216 0.537-0.046 1.15-0.583 1.365zM21.853 1.209c0.393 0 0.735 0.217 0.915 0.537 0.007 0.019 0.015 0.038 0.025 0.056l0.031 0.058c0.050 0.118 0.079 0.254 0.079 0.398 0 0.2-0.057 0.388-0.155 0.547l0.003-0.004c-0.003 0.005-0.006 0.009-0.009 0.014l-0.020 0.034c-0.189 0.278-0.508 0.46-0.868 0.46-0.579 0-1.050-0.471-1.050-1.050s0.471-1.050 1.050-1.050zM15.746 25.638c1.421 0 2.577 1.156 2.577 2.577s-1.156 2.577-2.577 2.577h-12.215c-1.421 0-2.577-1.156-2.577-2.577s1.156-2.577 2.577-2.577h12.215zM8.080 24.684v-1.081h3.117v1.081h-3.117zM15.777 22.648h-8.716v-5.119l0-0.002-0-0.002v-3.56c0-0.693 0.455-1.282 1.082-1.484v6.854c0 0.583 0.347 1.084 0.845 1.31l0.009 0.004c1.371 0.609 2.827 0.918 4.327 0.918h2.453v1.081zM16.795 19.268v1.344h-3.471c-0.569 0-1.13-0.049-1.682-0.146v-6.502c0-0.264-0.214-0.477-0.477-0.477s-0.477 0.214-0.477 0.477v0 6.283c-0.515-0.147-0.947-0.307-1.364-0.496l0.061 0.025c-0.171-0.077-0.287-0.246-0.287-0.442v0-6.929h3.014c0.522 0 1.007 0.259 1.297 0.694l2.783 4.175c0.378 0.559 0.604 1.248 0.604 1.99 0 0.001 0 0.002 0 0.004v-0zM15.643 14.731l-1.441-2.161c-0.213-0.316-0.486-0.575-0.805-0.765l-0.011-0.006 6.605-8.803c0.294 0.741 1.018 1.266 1.863 1.266 0.009 0 0.017-0.001 0.026-0.001l-6.236 10.469zM29.28 16.671l-7.269-10.767 1.526-2.562c0.013-0.021 0.026-0.041 0.039-0.062l6.754 12.762c-0.433 0.051-0.811 0.288-1.049 0.629zM30.505 18.068c-0.298 0-0.541-0.243-0.541-0.541s0.243-0.541 0.541-0.541 0.541 0.243 0.541 0.541-0.243 0.541-0.541 0.541z"></path>
</symbol>
<symbol id="icon-phone" viewBox="0 0 22 32">
<path fill="#fffff" stroke="#ffffff" style="stroke: var(--color5, #6b6c6e)" stroke-linejoin="miter" stroke-linecap="butt" stroke-miterlimit="4" stroke-width="0.9846" d="M0.542 8.96s1.231 3.397 4.332 9.846v0.049c3.151 6.449 5.169 9.354 5.169 9.354 2.068 2.215 5.514 3.2 9.206 1.428 2.018-0.985 1.674-3.298-0.197-7.138-1.674-3.446-3.545-3.545-4.775-2.462-0.246 0.197-1.034 0.935-1.083 1.182 0 0-0.738 1.231-3.545-4.628-2.806-5.809-1.674-5.514-1.674-5.514 0.197 0.049 1.28 0.197 1.575 0.098 1.575-0.345 2.855-2.018 1.034-5.76-1.871-3.84-3.446-5.563-5.465-4.578-3.052 1.428-5.022 5.12-4.578 8.123z"></path>
</symbol>
<symbol id="icon-menu" viewBox="0 0 32 32">
<path d="M4 9.333h24c0.736 0 1.333-0.597 1.333-1.333s-0.597-1.333-1.333-1.333v0h-24c-0.736 0-1.333 0.597-1.333 1.333s0.597 1.333 1.333 1.333v0zM28 14.667h-24c-0.736 0-1.333 0.597-1.333 1.333s0.597 1.333 1.333 1.333v0h24c0.736 0 1.333-0.597 1.333-1.333s-0.597-1.333-1.333-1.333v0zM28 22.667h-24c-0.736 0-1.333 0.597-1.333 1.333s0.597 1.333 1.333 1.333v0h24c0.736 0 1.333-0.597 1.333-1.333s-0.597-1.333-1.333-1.333v0z"></path>
</symbol>
<symbol id="icon-globe" viewBox="0 0 32 32">
<path fill="none" stroke="#007ad8" style="stroke: var(--color5, #6b6c6e)" stroke-linejoin="miter" stroke-linecap="butt" stroke-miterlimit="4" stroke-width="1" d="M31.5 16c0 8.56-6.94 15.5-15.5 15.5s-15.5-6.94-15.5-15.5c0-8.56 6.94-15.5 15.5-15.5s15.5 6.94 15.5 15.5z"></path>
</symbol>
</defs>
</svg>
